<svg xmlns="http://www.w3.org/2000/svg" width="32" height="32" fill="none" viewBox="0 0 32 32"><circle cx="9.546" cy="21.7" r="2.5" stroke="#000"/><circle cx="22.235" cy="21.7" r="2.5" stroke="#000"/><path fill="#000" fill-rule="evenodd" d="M8.38154 19.0381H5.90945C5.08103 19.0381 4.40945 19.7097 4.40945 20.5381C4.40945 21.3665 5.08103 22.0381 5.90945 22.0381H7.04623V21.0381H5.90945C5.63331 21.0381 5.40945 20.8142 5.40945 20.5381C5.40945 20.262 5.63331 20.0381 5.90945 20.0381H8.38154V19.0381ZM23.6016 20.0381H26.0905C26.3667 20.0381 26.5905 20.262 26.5905 20.5381C26.5905 20.8142 26.3667 21.0381 26.0905 21.0381H24.5726V22.0381H26.0905C26.919 22.0381 27.5905 21.3665 27.5905 20.5381C27.5905 19.7097 26.919 19.0381 26.0905 19.0381H23.6016V20.0381ZM12.0462 21.0381H19.9016V22.0381H12.0462V21.0381Z" clip-rule="evenodd"/><circle cx="9.546" cy="21.7" r=".75" fill="#000"/><circle cx="22.235" cy="21.788" r=".75" fill="#000"/><path stroke="#000" stroke-linecap="round" d="M6.09771 19.2451L5.25513 18.1554C5.11971 17.9803 5.04623 17.7651 5.04623 17.5437V14.3938L5.04624 12.409C5.04624 12.2117 5.10457 12.0189 5.2139 11.8547L6.09771 10.5275M6.09771 10.5275H14.4764L21.0173 10.5275M6.09771 10.5275L5.82774 10.0198C5.47353 9.35378 5.95626 8.55031 6.71066 8.55031L20.4481 8.55031C21.2331 8.55031 21.712 9.41329 21.2967 10.0794L21.0173 10.5275M21.0173 10.5275L26.3648 14.8683C26.5987 15.0582 26.7346 15.3434 26.7346 15.6447V19.4343M18.9866 10.5275L18.9866 15.545M19.0271 15.5449L26.5574 15.5449"/><rect width="6" height="3" x="9.061" y="12.545" stroke="#000" rx=".2"/><path stroke="#000" stroke-linecap="round" d="M14.5333 17.5137H13.9189V17.5137C13.4431 17.5137 13.0574 17.8994 13.0574 18.3751V18.4595M20.4625 17.5137H19.848V17.5137C19.3723 17.5137 18.9866 17.8994 18.9866 18.3751V18.5237"/><path fill="#000" d="M26.5001 17.032C26.7661 17.032 26.9818 17.2476 26.9818 17.5137C26.9818 17.7797 26.7661 17.9954 26.5001 17.9954L25.4635 17.9954C25.1974 17.9954 24.9818 17.7797 24.9818 17.5137C24.9818 17.2476 25.1974 17.032 25.4635 17.032L26.5001 17.032Z"/><path stroke="#000" stroke-linecap="round" d="M28.4935 15.8036L28.783 15.545M29.2157 17.3266L29.6038 17.3163M28.7081 18.8421L29.0328 19.0548"/></svg>