<svg xmlns="http://www.w3.org/2000/svg" width="32" height="32" viewBox="0 0 32 32">
    <g transform="translate(-99.143 -461.19)">
        <path style="line-height:normal;text-indent:0;text-align:start;text-decoration-line:none;text-decoration-style:solid;text-decoration-color:#000;text-transform:none;block-progression:tb;isolation:auto;mix-blend-mode:normal"

              d="m 107.86133,462.7793 a 0.50004988,0.50004988 0 0 0 -0.33008,0.14648 l -1.90625,1.90625 a 0.50004988,0.50004988 0 0 0 0.0606,0.75977 l 10.32617,7.46093 A 0.50004988,0.50004988 0 0 0 116.6582,473 l 3.52149,-3.52148 a 0.50004988,0.50004988 0 0 0 -0.13281,-0.80274 l -11.94336,-5.8457 a 0.50004988,0.50004988 0 0 0 -0.24219,-0.0508 z m 0.12305,1.10547 10.99414,5.38085 -2.72657,2.72657 -9.50586,-6.86719 1.23829,-1.24023 z m 15.02734,7.91601 a 0.50004988,0.50004988 0 0 0 -0.36133,0.14649 l -3.52344,3.52343 a 0.50004988,0.50004988 0 0 0 -0.0508,0.64649 l 7.46094,10.32617 a 0.50004988,0.50004988 0 0 0 0.75781,0.0606 l 1.90625,-1.90625 a 0.50004988,0.50004988 0 0 0 0.0957,-0.57422 l -5.84376,-11.94141 a 0.50004988,0.50004988 0 0 0 -0.4414,-0.28125 z m -0.15039,1.34961 5.38086,10.99219 -1.23828,1.23828 -6.86914,-9.50391 2.72656,-2.72656 z"
              color="#000" font-family="sans-serif" font-weight="400" overflow="visible"/>
        <path style="line-height:normal;text-indent:0;text-align:start;text-decoration-line:none;text-decoration-style:solid;text-decoration-color:#000;text-transform:none;block-progression:tb;isolation:auto;mix-blend-mode:normal"

              d="m 125.07422,464.31055 c -0.70352,4e-5 -1.4085,0.26787 -1.94336,0.80273 l -15.8457,15.8457 -0.67383,-0.38867 -1.50781,-0.875 -1.50977,-0.87304 a 0.50004994,0.50004994 0 0 0 -0.60352,0.0801 l -0.95312,0.95313 -0.95313,0.95312 a 0.50004994,0.50004994 0 0 0 0.0488,0.75 l 5.34766,4.08789 4.08984,5.34766 a 0.50004994,0.50004994 0 0 0 0.75,0.0508 l 0.95313,-0.95312 0.95312,-0.95313 a 0.50004994,0.50004994 0 0 0 0.0781,-0.60547 l -0.87305,-1.50781 -0.87305,-1.50977 -0.39062,-0.67187 15.84765,-15.84766 c 1.06972,-1.06971 1.06964,-2.81316 0,-3.88281 -0.53482,-0.53482 -1.23789,-0.80278 -1.9414,-0.80273 z m 0,0.99218 c 0.44484,-3e-5 0.88933,0.17254 1.23437,0.51758 0.69009,0.69009 0.69027,1.77849 0,2.46875 l -16.10937,16.10938 a 0.50004994,0.50004994 0 0 0 -0.0898,0.58398 l 0.13671,0.26172 a 0.50004994,0.50004994 0 0 0 0.01,0.0195 l 0.4375,0.75391 0.87305,1.50781 0.68164,1.17773 -0.68164,0.68165 -0.54883,0.54882 -3.7832,-4.94726 a 0.50004994,0.50004994 0 0 0 -0.0938,-0.0937 l -4.94531,-3.78125 0.54883,-0.54883 0.68164,-0.68164 1.17578,0.67969 1.50977,0.875 0.7539,0.43554 a 0.50004994,0.50004994 0 0 0 0.0195,0.0117 l 0.25976,0.13477 a 0.50004994,0.50004994 0 0 0 0.58594,-0.0899 l 16.10742,-16.10742 c 0.34513,-0.34513 0.79149,-0.51754 1.23633,-0.51758 z"
              color="#000" font-family="sans-serif" font-weight="400" overflow="visible"/>
        <path style="line-height:normal;text-indent:0;text-align:start;text-decoration-line:none;text-decoration-style:solid;text-decoration-color:#000;text-transform:none;block-progression:tb;isolation:auto;mix-blend-mode:normal"
               fill-rule="evenodd"
              d="m 108.73828,482.875 a 0.50004997,0.50004997 0 0 0 -0.34375,0.15039 l -2.54101,2.54297 a 0.50004997,0.50004997 0 1 0 0.70703,0.70703 l 2.54101,-2.54297 a 0.50004997,0.50004997 0 0 0 -0.36328,-0.85742 z"
              color="#000" font-family="sans-serif" font-weight="400" overflow="visible"/>
        <path style="line-height:normal;text-indent:0;text-align:start;text-decoration-line:none;text-decoration-style:solid;text-decoration-color:#000;text-transform:none;block-progression:tb;isolation:auto;mix-blend-mode:normal"
               fill-rule="evenodd"
              d="M107.56641 467.97266l-1.27149 1.27148.70703.70703 1.27149-1.27148-.70703-.70703zM109.47266 469.87891l-2.54297 2.54101.70703.70703 2.54297-2.54101-.70703-.70703zM123.44727 483.85547l-1.26954 1.26953.70704.70703 1.26953-1.26953-.70703-.70703zM121.54297 481.94922L119 484.49023l.70703.70704 2.54297-2.54102-.70703-.70703z"
              color="#000" font-family="sans-serif" font-weight="400" overflow="visible"/>
    </g>
</svg>
