<svg xmlns="http://www.w3.org/2000/svg" data-name="Layer 1" viewBox="0 0 128 128"><path d="M1.9987 86.00064c.03222 0 .06445-.001.09716-.002 19.30253-.57619 36.59157-10.32606 49.2674-24.62858 8.78179-9.90586 11.6384-23.28439 19.21862-33.93987C77.93537 17.09348 91.76636 8.52818 108.529 3.93059A2 2 0 1 0 107.47039.07323C97.10618 2.916 78.10919 9.94906 67.3221 25.112c-7.48978 10.5298-10.30188 23.847-18.952 33.60581-11.761 13.2685-28.47235 22.42507-46.46568 23.28488a2.00015 2.00015 0 0 0 .09424 3.998zM124.11973 4.68449a1.99521 1.99521 0 0 0 .70605-.12988q.91113-.34423 1.831-.66405A1.99973 1.99973 0 1 0 125.34238.11327q-.96826.33544-1.9287.69921a2.00054 2.00054 0 0 0 .70605 3.872zM80.9168 47.18873a2.00121 2.00121 0 0 0 1.9248-1.45994c.35058-1.251.71-2.497 1.09472-3.73432A1.99966 1.99966 0 0 0 80.118 40.805c-.39648 1.27244-.76562 2.55563-1.12792 3.84174a2.00241 2.00241 0 0 0 1.92675 2.542zM87.38064 26.107c-.3789.49511-1.97265 2.75582-2.37206 3.40229a2.00035 2.00035 0 0 0 3.40428 2.10153c.35254-.57226 1.792-2.61227 2.14354-3.07027A2.00048 2.00048 0 0 0 87.38064 26.107zM78.16681 54.64076a1.99913 1.99913 0 0 0-2.57518 1.16893c-.11328.30175-1.07226 2.68551-1.45214 3.56733A1.99809 1.99809 0 0 0 75.1834 62.0049 2.022 2.022 0 0 0 77.81134 60.961c.39551-.915 1.40136-3.41792 1.52441-3.74506A1.99961 1.99961 0 0 0 78.16681 54.64076zM108.20183 10.578a2.06 2.06 0 0 0 2.74217.6953c1.0996-.65526 2.23046-1.29588 3.36034-1.90524a2.00028 2.00028 0 1 0-1.89843-3.52143c-1.17968.63671-2.36034 1.30564-3.50877 1.98923A2.0011 2.0011 0 0 0 108.20183 10.578z"/><path d="M98.90695 14.6482c-1.081.84862-2.13183 1.71775-3.123 2.5859a1.99805 1.99805 0 0 0-.18851 2.82121 2.04432 2.04432 0 0 0 2.82131.18851c.93847-.8203 1.93456-1.64451 2.959-2.44918a1.99967 1.99967 0 1 0-2.46874-3.14644zM19.44589 102.34707c-1.14746.166-2.46776.34863-3.88328.53027a1.99928 1.99928 0 0 0-1.73 2.23725 2.05532 2.05532 0 0 0 2.23778 1.72948c1.439-.18359 2.78075-.37011 3.94676-.53808a2 2 0 1 0-.57129-3.95892zM47.9941 91.79352c-1.062.70116-2.15819 1.37986-3.25731 2.01852a1.9995 1.9995 0 0 0-.72511 2.73333 2.02591 2.02591 0 0 0 2.73389.72561c1.16455-.67675 2.32616-1.39646 3.45262-2.13962a1.99995 1.99995 0 0 0-2.20409-3.33784zM34.3467 98.70552c-1.188.44042-2.40966.8535-3.63035 1.2285a2.00078 2.00078 0 0 0-1.32374 2.49993 2.02669 2.02669 0 0 0 2.49951 1.32423c1.29247-.39843 2.58593-.83592 3.84422-1.30271a1.99957 1.99957 0 1 0-1.38964-3.74994zM59.705 81.94992c-.876.92772-1.78857 1.83884-2.71141 2.7109a1.99931 1.99931 0 0 0-.082 2.82709 2.02671 2.02671 0 0 0 2.82715.08107c.97851-.92284 1.9453-1.88962 2.87352-2.87105a2.00021 2.00021 0 1 0-2.90721-2.748zM68.911 69.704c-.66015 1.10741-1.35058 2.20212-2.05175 3.25386a1.99994 1.99994 0 0 0 3.32811 2.21872c.73828-1.10741 1.46484-2.25973 2.15917-3.42378A2 2 0 0 0 68.911 69.704zM2.00016 108.0003c.65722 0 1.35351-.01465 2.07812-.042a2.00043 2.00043 0 0 0-.15137-3.998c-.67187.02539-1.31738.04-1.92675.04a2 2 0 1 0 0 3.99994z"/><path d="M127.79842,9.12778a1.99985,1.99985,0,0,0-2.67284-.92479c-15.4472,7.50477-23.67958,22.21744-27.86707,33.23878C92.6982,53.448,92.13566,66.47093,88.284,78.66969c-7.16989,22.70766-23.57411,38.15079-44.95122,42.35878-13.69737,2.33391-27.5512,2.507-41.39995,2.97257A2,2,0,0,0,1.99919,128c.02246,0,.04541,0,.06839-.001a252.26209,252.26209,0,0,0,41.98269-3.03609c22.91152-4.5097,40.42413-20.944,48.04813-45.08822,3.8282-12.12955,4.3722-25.09124,8.90034-37.01308,3.92869-10.34359,11.60835-24.12854,25.87488-31.06105A2.00039,2.00039,0,0,0,127.79842,9.12778Z"/></svg>